<?xml version="1.0" encoding="UTF-8" standalone="no"?>
<!DOCTYPE svg PUBLIC "-//W3C//DTD SVG 1.1//EN"
 "http://www.w3.org/Graphics/SVG/1.1/DTD/svg11.dtd">
<!-- Generated by graphviz version 2.40.1 (20161225.0304)
 -->
<!-- Title: dependencies Pages: 1 -->
<svg width="504pt" height="284pt"
 viewBox="0.00 0.00 504.00 284.00" xmlns="http://www.w3.org/2000/svg" xmlns:xlink="http://www.w3.org/1999/xlink">
<g id="graph0" class="graph" transform="scale(1 1) rotate(0) translate(4 280)">
<title>dependencies</title>
<polygon fill="#ffffff" stroke="transparent" points="-4,4 -4,-280 500,-280 500,4 -4,4"/>
<text text-anchor="start" x="227.0091" y="-42.4" font-family="sans-serif" font-weight="bold" font-size="14.00" fill="#000000">Legend</text>
<polygon fill="#ffffb3" stroke="transparent" points="14,-10 14,-30 34,-30 34,-10 14,-10"/>
<text text-anchor="start" x="37.629" y="-15.4" font-family="sans-serif" font-size="14.00" fill="#000000"> &#160;Declarations</text>
<polygon fill="#8dd3c7" stroke="transparent" points="127,-10 127,-30 147,-30 147,-10 127,-10"/>
<text text-anchor="start" x="150.7251" y="-15.4" font-family="sans-serif" font-size="14.00" fill="#000000"> &#160;Module</text>
<polygon fill="#80b1d3" stroke="transparent" points="213,-10 213,-30 233,-30 233,-10 213,-10"/>
<text text-anchor="start" x="236.7812" y="-15.4" font-family="sans-serif" font-size="14.00" fill="#000000"> &#160;Bootstrap</text>
<polygon fill="#fdb462" stroke="transparent" points="310,-10 310,-30 330,-30 330,-10 310,-10"/>
<text text-anchor="start" x="333.6732" y="-15.4" font-family="sans-serif" font-size="14.00" fill="#000000"> &#160;Providers</text>
<polygon fill="#fb8072" stroke="transparent" points="406,-10 406,-30 426,-30 426,-10 406,-10"/>
<text text-anchor="start" x="429.7258" y="-15.4" font-family="sans-serif" font-size="14.00" fill="#000000"> &#160;Exports</text>
<g id="clust1" class="cluster">
<title>cluster_AuthModule</title>
<polygon fill="none" stroke="#000000" stroke-dasharray="1,5" points="39,-70 39,-268 457,-268 457,-70 39,-70"/>
</g>
<g id="clust3" class="cluster">
<title>cluster_AuthModule_imports</title>
<polygon fill="none" stroke="#000000" points="331,-78 331,-130 449,-130 449,-78 331,-78"/>
</g>
<g id="clust4" class="cluster">
<title>cluster_AuthModule_exports</title>
<polygon fill="none" stroke="#000000" points="201,-208 201,-260 311,-260 311,-208 201,-208"/>
</g>
<g id="clust6" class="cluster">
<title>cluster_AuthModule_providers</title>
<polygon fill="none" stroke="#000000" points="47,-78 47,-130 323,-130 323,-78 47,-78"/>
</g>
<!-- ModelsModule -->
<g id="node1" class="node">
<title>ModelsModule</title>
<polygon fill="#8dd3c7" stroke="#000000" points="440.5452,-122 437.5452,-126 416.5452,-126 413.5452,-122 339.4548,-122 339.4548,-86 440.5452,-86 440.5452,-122"/>
<text text-anchor="middle" x="390" y="-99.8" font-family="Times,serif" font-size="14.00" fill="#000000">ModelsModule</text>
</g>
<!-- AuthModule -->
<g id="node2" class="node">
<title>AuthModule</title>
<polygon fill="#8dd3c7" stroke="#000000" points="299.5482,-187 296.5482,-191 275.5482,-191 272.5482,-187 212.4518,-187 212.4518,-151 299.5482,-151 299.5482,-187"/>
<text text-anchor="middle" x="256" y="-164.8" font-family="Times,serif" font-size="14.00" fill="#000000">AuthModule</text>
</g>
<!-- ModelsModule&#45;&gt;AuthModule -->
<g id="edge1" class="edge">
<title>ModelsModule&#45;&gt;AuthModule</title>
<path fill="none" stroke="#000000" d="M390,-122.1061C390,-141.3391 390,-169 390,-169 390,-169 309.8766,-169 309.8766,-169"/>
<polygon fill="#000000" stroke="#000000" points="309.8766,-165.5001 299.8766,-169 309.8766,-172.5001 309.8766,-165.5001"/>
</g>
<!-- JWTStrategy  -->
<g id="node3" class="node">
<title>JWTStrategy </title>
<polygon fill="#fb8072" stroke="#000000" points="302.8661,-252 209.1339,-252 209.1339,-216 302.8661,-216 302.8661,-252"/>
<text text-anchor="middle" x="256" y="-229.8" font-family="Times,serif" font-size="14.00" fill="#000000">JWTStrategy </text>
</g>
<!-- AuthModule&#45;&gt;JWTStrategy  -->
<g id="edge2" class="edge">
<title>AuthModule&#45;&gt;JWTStrategy </title>
<path fill="none" stroke="#000000" stroke-dasharray="5,2" d="M256,-187.1061C256,-187.1061 256,-205.991 256,-205.991"/>
<polygon fill="#000000" stroke="#000000" points="252.5001,-205.9909 256,-215.991 259.5001,-205.991 252.5001,-205.9909"/>
</g>
<!-- AuthService -->
<g id="node4" class="node">
<title>AuthService</title>
<ellipse fill="#fdb462" stroke="#000000" cx="256" cy="-104" rx="59.1083" ry="18"/>
<text text-anchor="middle" x="256" y="-99.8" font-family="Times,serif" font-size="14.00" fill="#000000">AuthService</text>
</g>
<!-- AuthService&#45;&gt;AuthModule -->
<g id="edge3" class="edge">
<title>AuthService&#45;&gt;AuthModule</title>
<path fill="none" stroke="#000000" d="M256,-122.1061C256,-122.1061 256,-140.991 256,-140.991"/>
<polygon fill="#000000" stroke="#000000" points="252.5001,-140.9909 256,-150.991 259.5001,-140.991 252.5001,-140.9909"/>
</g>
<!-- JWTStrategy -->
<g id="node5" class="node">
<title>JWTStrategy</title>
<ellipse fill="#fdb462" stroke="#000000" cx="117" cy="-104" rx="61.975" ry="18"/>
<text text-anchor="middle" x="117" y="-99.8" font-family="Times,serif" font-size="14.00" fill="#000000">JWTStrategy</text>
</g>
<!-- JWTStrategy&#45;&gt;AuthModule -->
<g id="edge4" class="edge">
<title>JWTStrategy&#45;&gt;AuthModule</title>
<path fill="none" stroke="#000000" d="M117,-122.1061C117,-141.3391 117,-169 117,-169 117,-169 202.4009,-169 202.4009,-169"/>
<polygon fill="#000000" stroke="#000000" points="202.4009,-172.5001 212.4009,-169 202.4009,-165.5001 202.4009,-172.5001"/>
</g>
</g>
</svg>
