<?xml version="1.0" encoding="UTF-8" standalone="no"?>
<!DOCTYPE svg PUBLIC "-//W3C//DTD SVG 1.1//EN"
 "http://www.w3.org/Graphics/SVG/1.1/DTD/svg11.dtd">
<!-- Generated by graphviz version 2.40.1 (20161225.0304)
 -->
<!-- Title: dependencies Pages: 1 -->
<svg width="504pt" height="211pt"
 viewBox="0.00 0.00 504.00 211.00" xmlns="http://www.w3.org/2000/svg" xmlns:xlink="http://www.w3.org/1999/xlink">
<g id="graph0" class="graph" transform="scale(1 1) rotate(0) translate(4 207)">
<title>dependencies</title>
<polygon fill="#ffffff" stroke="transparent" points="-4,4 -4,-207 500,-207 500,4 -4,4"/>
<text text-anchor="start" x="227.0091" y="-42.4" font-family="sans-serif" font-weight="bold" font-size="14.00" fill="#000000">Legend</text>
<polygon fill="#ffffb3" stroke="transparent" points="14,-10 14,-30 34,-30 34,-10 14,-10"/>
<text text-anchor="start" x="37.629" y="-15.4" font-family="sans-serif" font-size="14.00" fill="#000000"> &#160;Declarations</text>
<polygon fill="#8dd3c7" stroke="transparent" points="127,-10 127,-30 147,-30 147,-10 127,-10"/>
<text text-anchor="start" x="150.7251" y="-15.4" font-family="sans-serif" font-size="14.00" fill="#000000"> &#160;Module</text>
<polygon fill="#80b1d3" stroke="transparent" points="213,-10 213,-30 233,-30 233,-10 213,-10"/>
<text text-anchor="start" x="236.7812" y="-15.4" font-family="sans-serif" font-size="14.00" fill="#000000"> &#160;Bootstrap</text>
<polygon fill="#fdb462" stroke="transparent" points="310,-10 310,-30 330,-30 330,-10 310,-10"/>
<text text-anchor="start" x="333.6732" y="-15.4" font-family="sans-serif" font-size="14.00" fill="#000000"> &#160;Providers</text>
<polygon fill="#fb8072" stroke="transparent" points="406,-10 406,-30 426,-30 426,-10 406,-10"/>
<text text-anchor="start" x="429.7258" y="-15.4" font-family="sans-serif" font-size="14.00" fill="#000000"> &#160;Exports</text>
<g id="clust1" class="cluster">
<title>cluster_ApiModule</title>
<polygon fill="none" stroke="#000000" stroke-dasharray="1,5" points="133,-70 133,-195 363,-195 363,-70 133,-70"/>
</g>
<g id="clust3" class="cluster">
<title>cluster_ApiModule_imports</title>
<polygon fill="none" stroke="#000000" points="141,-78 141,-130 355,-130 355,-78 141,-78"/>
</g>
<!-- AuthModule -->
<g id="node1" class="node">
<title>AuthModule</title>
<polygon fill="#8dd3c7" stroke="#000000" points="346.5482,-122 343.5482,-126 322.5482,-126 319.5482,-122 259.4518,-122 259.4518,-86 346.5482,-86 346.5482,-122"/>
<text text-anchor="middle" x="303" y="-99.8" font-family="Times,serif" font-size="14.00" fill="#000000">AuthModule</text>
</g>
<!-- ApiModule -->
<g id="node3" class="node">
<title>ApiModule</title>
<polygon fill="#8dd3c7" stroke="#000000" points="289.0483,-187 286.0483,-191 265.0483,-191 262.0483,-187 208.9517,-187 208.9517,-151 289.0483,-151 289.0483,-187"/>
<text text-anchor="middle" x="249" y="-164.8" font-family="Times,serif" font-size="14.00" fill="#000000">ApiModule</text>
</g>
<!-- AuthModule&#45;&gt;ApiModule -->
<g id="edge1" class="edge">
<title>AuthModule&#45;&gt;ApiModule</title>
<path fill="none" stroke="#000000" d="M274.25,-122.1061C274.25,-122.1061 274.25,-140.991 274.25,-140.991"/>
<polygon fill="#000000" stroke="#000000" points="270.7501,-140.9909 274.25,-150.991 277.7501,-140.991 270.7501,-140.9909"/>
</g>
<!-- TasksModule -->
<g id="node2" class="node">
<title>TasksModule</title>
<polygon fill="#8dd3c7" stroke="#000000" points="241.2064,-122 238.2064,-126 217.2064,-126 214.2064,-122 148.7936,-122 148.7936,-86 241.2064,-86 241.2064,-122"/>
<text text-anchor="middle" x="195" y="-99.8" font-family="Times,serif" font-size="14.00" fill="#000000">TasksModule</text>
</g>
<!-- TasksModule&#45;&gt;ApiModule -->
<g id="edge2" class="edge">
<title>TasksModule&#45;&gt;ApiModule</title>
<path fill="none" stroke="#000000" d="M224.9148,-122.1061C224.9148,-122.1061 224.9148,-140.991 224.9148,-140.991"/>
<polygon fill="#000000" stroke="#000000" points="221.4149,-140.9909 224.9148,-150.991 228.4149,-140.991 221.4149,-140.9909"/>
</g>
</g>
</svg>
